<svg width="28" height="24" viewBox="0 0 28 24" fill="none" xmlns="http://www.w3.org/2000/svg">
<path fill-rule="evenodd" clip-rule="evenodd" d="M13.09 -0.00400481C12.5596 -0.00400481 12.0509 0.206709 11.6758 0.581782C11.3007 0.956854 11.09 1.46556 11.09 1.996C11.09 2.52643 11.3007 3.03514 11.6758 3.41021C12.0509 3.78528 12.5596 3.996 13.09 3.996H18.546C19.9272 4.02289 21.2428 4.59047 22.2101 5.57679C23.1774 6.56312 23.7193 7.8895 23.7193 9.271C23.7193 10.6525 23.1774 11.9789 22.2101 12.9652C21.2428 13.9515 19.9272 14.5191 18.546 14.546H9.63401V11.09C9.63393 10.6945 9.51658 10.3079 9.29681 9.97908C9.07705 9.65026 8.76472 9.39398 8.39932 9.24264C8.03392 9.0913 7.63185 9.05169 7.24395 9.12883C6.85604 9.20596 6.49971 9.39638 6.22001 9.67599L0.768012 15.128C0.488049 15.4076 0.296929 15.7637 0.218648 16.1515C0.140366 16.5394 0.178413 16.9417 0.328012 17.308C0.426012 17.546 0.570012 17.768 0.764012 17.962L6.22001 23.418C6.49971 23.6976 6.85604 23.888 7.24395 23.9652C7.63185 24.0423 8.03392 24.0027 8.39932 23.8514C8.76472 23.7 9.07705 23.4437 9.29681 23.1149C9.51658 22.7861 9.63393 22.3995 9.63401 22.004V18.546H18.546C19.7755 18.564 20.9963 18.3375 22.1374 17.8795C23.2785 17.4215 24.3172 16.7411 25.193 15.8781C26.0688 15.015 26.7643 13.9865 27.239 12.8522C27.7137 11.7179 27.9582 10.5006 27.9582 9.271C27.9582 8.04139 27.7137 6.82406 27.239 5.68979C26.7643 4.55552 26.0688 3.52695 25.193 2.66389C24.3172 1.80084 23.2785 1.12053 22.1374 0.662516C20.9963 0.204506 19.7755 -0.0220594 18.546 -0.00400481H13.09Z" fill="white"/>
</svg>
